<svg width="101" height="21" viewBox="0 0 101 21" fill="none" xmlns="http://www.w3.org/2000/svg">
<g clip-path="url(#clip0_749_257)">
<path d="M14.7561 0.276158L29.7137 13.9867C30.1522 14.3879 30.1916 15.0786 29.8024 15.5289L28.2538 17.3284C27.8646 17.7804 27.0993 17.9209 26.6608 17.5197L11.8001 3.70929C11.3616 3.30808 11.3222 2.61739 11.7114 2.16709L13.26 0.367573C13.6493 -0.0844221 14.3193 -0.125051 14.7561 0.276158ZM10.9067 4.47785L12.9776 6.37217C13.4161 6.77338 13.4555 7.46407 13.0663 7.91437L12.9398 8.06165C12.5506 8.51364 12.5917 9.20433 13.0285 9.60385L16.8451 13.0945C18.2804 14.4082 19.8093 15.7947 21.4286 17.2522C21.8704 17.65 21.9147 18.3407 21.5304 18.7944L19.9785 20.6261C19.5909 21.0832 18.9176 21.1272 18.4775 20.7243L10.0741 13.0387C9.6356 12.6375 8.96557 12.6798 8.578 13.1301L3.9255 18.2866C3.53629 18.7386 2.86625 18.7792 2.42941 18.378L0.358536 16.4837C-0.0799448 16.0824 -0.119359 15.3918 0.269854 14.9415L9.40897 4.56927C9.79819 4.11727 10.4682 4.07664 10.9051 4.47785H10.9067Z" fill="#1C3360"/>
<path d="M33.7969 3.58984H40.9062V6.33059H36.5049V9.0104H40.9062V11.7105H36.5049V18.355H33.7985V3.58984H33.7969Z" fill="#1C3360"/>
<path d="M41.75 7.43359H44.4088V18.3543H41.75V7.43359Z" fill="#1C3360"/>
<path d="M45.8242 7.43505H48.483V8.55404C49.0857 8.03094 49.6326 7.66528 50.122 7.46045C50.6114 7.25561 51.1123 7.15234 51.6246 7.15234C52.6757 7.15234 53.5658 7.52985 54.2982 8.28656C54.9141 8.92985 55.2228 9.87955 55.2228 11.1373V18.354H52.5936V13.5717C52.5936 12.2682 52.5361 11.4031 52.4228 10.9748C52.3095 10.5465 52.1124 10.2215 51.8299 9.99805C51.5475 9.77459 51.1993 9.66286 50.7855 9.66286C50.2484 9.66286 49.787 9.84908 49.401 10.2198C49.0151 10.5906 48.7491 11.1035 48.5996 11.7586C48.5224 12.0989 48.483 12.8387 48.483 13.9746V18.3557H45.8242V7.43505Z" fill="#1C3360"/>
<path d="M55.8598 7.43333H58.9473L61.0411 10.4094L63.1251 7.43333H66.16L62.5635 12.5729L66.6313 18.354H63.5439L61.0231 14.7719L58.5153 18.354H55.4805L59.5023 12.6084L55.8615 7.43164L55.8598 7.43333Z" fill="#1C3360"/>
<path d="M77.6014 13.6865H69.0617C69.1849 14.4636 69.5149 15.0798 70.0503 15.5385C70.5857 15.9973 71.2689 16.2258 72.0999 16.2258C73.0934 16.2258 73.9474 15.8686 74.6601 15.1526L76.9001 16.236C76.3418 17.052 75.6734 17.6563 74.8933 18.0474C74.1132 18.4384 73.1887 18.6348 72.1179 18.6348C70.456 18.6348 69.1027 18.0948 68.0566 17.013C67.0105 15.933 66.4883 14.5787 66.4883 12.9518C66.4883 11.325 67.0089 9.9013 68.0517 8.80093C69.0929 7.70057 70.4001 7.15039 71.9718 7.15039C73.6403 7.15039 74.9968 7.70057 76.0429 8.80093C77.0874 9.9013 77.6112 11.3555 77.6112 13.1618L77.6014 13.6832V13.6865ZM74.9426 11.5281C74.7669 10.9187 74.4203 10.4244 73.903 10.0418C73.3857 9.66091 72.7863 9.46962 72.1031 9.46962C71.3625 9.46962 70.7121 9.68461 70.1521 10.1129C69.8007 10.3804 69.4755 10.8527 69.1766 11.5281H74.9409H74.9426Z" fill="#1C3360"/>
<path d="M89.3709 13.6865H80.8312C80.9544 14.4636 81.2845 15.0798 81.8199 15.5385C82.3552 15.9973 83.0384 16.2258 83.8694 16.2258C84.8629 16.2258 85.7169 15.8686 86.4296 15.1526L88.6697 16.236C88.1113 17.052 87.4429 17.6563 86.6628 18.0474C85.8844 18.4384 84.9582 18.6348 83.8874 18.6348C82.2255 18.6348 80.8723 18.0948 79.8262 17.013C78.78 15.933 78.2578 14.5787 78.2578 12.9518C78.2578 11.325 78.7784 9.9013 79.8212 8.80093C80.8624 7.70057 82.1696 7.15039 83.7413 7.15039C85.4098 7.15039 86.7663 7.70057 87.8124 8.80093C88.8569 9.9013 89.3808 11.3555 89.3808 13.1618L89.3709 13.6832V13.6865ZM86.7121 11.5281C86.5364 10.9187 86.1899 10.4244 85.6726 10.0418C85.1553 9.66091 84.5558 9.46962 83.8727 9.46962C83.132 9.46962 82.4817 9.68461 81.9217 10.1129C81.5702 10.3804 81.2451 10.8527 80.9462 11.5281H86.7105H86.7121Z" fill="#1C3360"/>
<path d="M98.3433 3.21875H101.002V18.3547H98.3433V17.2001C97.8244 17.708 97.3038 18.0753 96.7815 18.2988C96.2593 18.5223 95.6943 18.6357 95.0834 18.6357C93.7154 18.6357 92.5314 18.0889 91.5329 16.9953C90.5344 15.9017 90.0352 14.5406 90.0352 12.9155C90.0352 11.2903 90.518 9.84801 91.4836 8.76966C92.4493 7.69299 93.6235 7.15297 95.0046 7.15297C95.6402 7.15297 96.2363 7.27655 96.7947 7.52371C97.353 7.77087 97.8687 8.1433 98.3417 8.63761V3.21875H98.3433ZM95.5482 9.6838C94.7271 9.6838 94.0439 9.98344 93.5003 10.5827C92.9567 11.182 92.6857 11.9489 92.6857 12.8867C92.6857 13.8246 92.9616 14.6067 93.5151 15.2161C94.0685 15.8255 94.7484 16.1302 95.558 16.1302C96.3677 16.1302 97.0853 15.8306 97.6355 15.2313C98.1856 14.632 98.4599 13.8483 98.4599 12.8782C98.4599 11.9082 98.184 11.1583 97.6355 10.5692C97.0853 9.98005 96.3907 9.6855 95.5482 9.6855V9.6838Z" fill="#1C3360"/>
<path d="M62.5622 12.5742L61.0234 14.7733L63.5426 18.3554H66.6301L62.5622 12.5742Z" fill="url(#paint0_linear_749_257)"/>
</g>
<defs>
<linearGradient id="paint0_linear_749_257" x1="65.4789" y1="19.388" x2="61.9517" y2="13.7151" gradientUnits="userSpaceOnUse">
<stop offset="0.23" stop-color="#538FCC"/>
<stop offset="0.37" stop-color="#4B83BE"/>
<stop offset="0.64" stop-color="#39649A"/>
<stop offset="1" stop-color="#1B3360"/>
</linearGradient>
<clipPath id="clip0_749_257">
<rect width="101" height="21" fill="white"/>
</clipPath>
</defs>
</svg>
